<?xml version="1.0" standalone="no"?>
<!DOCTYPE svg PUBLIC "-//W3C//DTD SVG 20010904//EN"
 "http://www.w3.org/TR/2001/REC-SVG-20010904/DTD/svg10.dtd">
<svg version="1.0" xmlns="http://www.w3.org/2000/svg"
 width="500.000000pt" height="500.000000pt" viewBox="0 0 500.000000 500.000000"
 preserveAspectRatio="xMidYMid meet">

<g transform="translate(0.000000,500.000000) scale(0.100000,-0.100000)"
fill="#000000" stroke="none">
<path d="M662 4345 c-125 -63 -237 -212 -277 -370 -26 -98 -22 -226 9 -319 16
-50 23 -83 17 -90 -5 -6 -28 -31 -52 -56 -56 -59 -161 -221 -205 -315 -53
-115 -101 -271 -124 -401 -23 -132 -27 -359 -9 -509 11 -97 76 -319 116 -400
45 -90 130 -209 195 -272 74 -74 115 -103 194 -138 33 -14 69 -35 81 -47 20
-19 21 -22 7 -33 -14 -9 -6 -16 47 -42 114 -56 176 -68 349 -67 138 1 164 4
244 28 243 74 425 197 601 406 221 264 339 582 352 950 8 246 -19 402 -109
608 -28 64 -44 90 -51 83 -7 -7 -1 -43 21 -113 59 -194 67 -254 67 -478 -1
-175 -4 -220 -23 -310 -46 -210 -138 -431 -247 -595 -93 -141 -306 -329 -460
-407 -133 -68 -298 -108 -445 -108 -89 0 -214 19 -260 39 l-25 12 25 -6 c136
-29 227 -37 310 -26 308 39 569 190 771 443 183 230 288 463 321 713 19 148
16 474 -5 575 -54 250 -152 435 -313 591 -128 122 -219 177 -359 215 -49 13
-110 24 -135 24 -81 0 -90 6 -90 59 0 62 -28 160 -41 140 -7 -11 -9 -9 -9 8 0
29 -16 38 -23 13 -3 -11 -1 -18 3 -15 5 3 8 -40 7 -96 -1 -70 -6 -104 -14
-106 -9 -3 -12 20 -11 94 1 104 -11 157 -45 208 -68 102 -148 145 -266 145
-58 0 -79 -5 -139 -35z m176 -361 c3 -36 -2 -47 -31 -78 -19 -20 -41 -36 -49
-36 -13 0 -14 7 -3 53 19 80 35 108 59 105 17 -2 22 -11 24 -44z m449 -409
c56 -17 111 -54 81 -55 -9 0 -43 7 -75 15 -117 31 -243 13 -333 -48 -68 -46
-200 -186 -239 -253 -19 -32 -47 -79 -63 -103 -36 -57 -102 -227 -123 -316 -8
-38 -20 -83 -26 -100 -17 -49 -23 -321 -9 -416 6 -46 14 -104 16 -129 2 -25
17 -85 33 -133 15 -48 26 -87 22 -87 -3 0 -18 19 -33 43 -36 58 -75 177 -86
267 -13 110 -6 315 16 432 11 57 19 110 19 118 0 8 23 72 51 142 29 70 52 133
52 140 0 7 13 41 29 75 87 183 257 360 391 406 59 21 210 22 277 2z m18 -75
c3 -5 22 -10 41 -10 38 0 99 -34 152 -84 45 -42 94 -125 142 -239 46 -111 59
-162 62 -243 1 -33 6 -64 11 -71 10 -13 4 -160 -11 -313 -15 -144 -87 -342
-164 -454 -87 -125 -213 -236 -340 -302 -67 -34 -167 -56 -275 -61 -109 -5
-149 9 -228 77 -62 54 -74 70 -79 112 -3 18 -11 51 -19 73 -8 23 -27 97 -41
166 -24 113 -27 141 -23 284 4 151 17 255 37 300 6 11 21 58 36 105 27 87 130
310 143 310 4 0 15 17 24 38 26 59 210 243 279 278 69 36 238 59 253 34z"/>
<path d="M1335 3160 c-10 -11 -24 -20 -31 -20 -16 0 -60 -52 -85 -101 -15 -30
-16 -39 -6 -39 8 0 22 18 32 40 25 55 80 110 110 110 23 0 25 -4 25 -42 0 -23
-10 -62 -22 -87 -21 -45 -129 -161 -149 -161 -5 0 -13 9 -17 21 -8 20 -9 20
-20 -6 -7 -15 -10 -31 -6 -36 3 -5 -8 -38 -25 -73 -34 -71 -73 -203 -62 -210
4 -3 12 19 18 48 21 99 68 181 138 239 35 28 64 57 64 62 1 6 17 27 36 48 61
66 88 218 39 225 -11 2 -28 -6 -39 -18z"/>
<path d="M1030 3026 c0 -102 6 -134 30 -166 19 -25 19 -25 5 24 -8 27 -15 80
-15 117 0 55 3 68 17 71 15 3 15 4 -1 21 -10 9 -22 17 -27 17 -5 0 -9 -38 -9
-84z"/>
<path d="M1098 2983 c5 -21 7 -23 10 -9 2 10 0 22 -6 28 -6 6 -7 0 -4 -19z"/>
<path d="M1111 2934 c0 -11 3 -14 6 -6 3 7 2 16 -1 19 -3 4 -6 -2 -5 -13z"/>
<path d="M907 2888 c-3 -26 1 -62 12 -97 20 -63 82 -203 88 -197 7 6 -59 200
-73 217 -19 21 -19 79 1 79 17 0 44 -49 38 -68 -5 -14 14 -42 29 -42 6 0 7 11
4 25 -10 38 -66 125 -81 125 -7 0 -15 -17 -18 -42z"/>
<path d="M1383 2900 c-17 -10 -37 -28 -43 -39 -6 -12 -15 -21 -20 -21 -9 0
-59 -46 -100 -92 -18 -22 -20 -28 -8 -28 9 0 40 25 69 56 30 31 68 63 84 71
17 9 34 22 38 29 4 8 17 14 27 14 13 0 18 5 14 15 -8 20 -23 19 -61 -5z"/>
<path d="M1440 2845 c0 -8 -4 -15 -10 -15 -5 0 -9 -4 -7 -10 1 -5 -10 -22 -25
-37 -15 -15 -45 -47 -68 -70 -22 -24 -38 -43 -34 -43 4 0 -1 -10 -12 -22 -10
-12 9 1 43 30 65 55 123 133 123 164 0 10 -2 18 -5 18 -3 0 -5 -7 -5 -15z"/>
<path d="M840 2701 c0 -29 7 -47 30 -71 37 -40 51 -33 20 10 -12 17 -20 33
-18 36 7 6 77 -67 83 -87 4 -11 11 -19 17 -19 6 0 3 10 -6 23 -9 12 -35 50
-58 85 -49 73 -68 79 -68 23z"/>
<path d="M1035 2651 c3 -35 5 -75 5 -87 0 -13 3 -24 8 -24 14 0 12 114 -3 145
-15 29 -15 28 -10 -34z"/>
<path d="M1205 2610 c-10 -11 -28 -20 -40 -20 -22 0 -54 -29 -74 -67 -6 -13
-21 -23 -32 -23 -15 0 -20 -6 -18 -22 2 -13 0 -28 -3 -34 -4 -6 -10 -42 -13
-80 -8 -88 6 -69 37 52 l23 87 49 27 c28 14 52 33 54 41 3 8 14 24 25 37 11
12 18 22 15 22 -3 0 -13 -9 -23 -20z"/>
<path d="M1219 2593 l-24 -28 28 24 c25 23 32 31 24 31 -2 0 -14 -12 -28 -27z"/>
<path d="M788 2552 c-19 -49 -22 -166 -5 -202 9 -18 19 -48 23 -69 11 -57 42
-112 97 -168 l50 -52 8 -88 c9 -103 7 -93 18 -93 4 0 12 35 15 79 l7 78 82 28
c103 34 128 50 199 122 57 58 84 113 56 113 -26 0 -122 -32 -168 -55 -25 -13
-53 -25 -62 -28 -9 -3 -36 -34 -60 -69 l-43 -63 -3 48 c-4 61 13 89 78 125 27
15 50 32 50 38 0 12 63 44 88 44 28 0 116 56 150 94 27 32 69 133 58 143 -10
10 -78 -11 -129 -40 -39 -23 -76 -58 -126 -119 -39 -48 -71 -90 -71 -94 0 -3
-12 -21 -26 -40 -30 -39 -54 -44 -54 -11 0 16 -3 18 -9 8 -5 -7 -14 -10 -21
-6 -16 10 -70 125 -70 148 0 26 -18 57 -57 97 -18 19 -33 37 -33 41 0 4 -7 10
-15 13 -11 4 -19 -3 -27 -22z m71 -62 c21 -32 42 -56 46 -52 5 4 5 2 1 -5 -4
-7 4 -34 18 -60 36 -72 56 -150 56 -220 0 -74 -15 -82 -61 -34 -15 16 -30 27
-32 24 -3 -2 -4 4 -3 14 0 9 -4 18 -11 18 -6 0 -15 4 -20 9 -5 5 -3 6 5 2 17
-10 15 18 -3 54 -16 31 -32 42 -21 15 3 -8 0 -15 -5 -15 -7 0 -9 9 -6 21 3 11
-1 39 -9 61 -16 47 -20 228 -4 228 6 0 28 -27 49 -60z m531 39 c0 -45 -54
-112 -109 -135 -46 -19 -50 -10 -15 29 27 30 27 30 -11 -4 -41 -37 -99 -79
-108 -79 -16 0 51 95 79 113 19 12 34 27 34 34 0 13 27 31 75 50 44 17 55 15
55 -8z m-603 -71 c-3 -7 -5 -2 -5 12 0 14 2 19 5 13 2 -7 2 -19 0 -25z m0 -70
c-3 -8 -6 -5 -6 6 -1 11 2 17 5 13 3 -3 4 -12 1 -19z m513 -139 c0 -20 -79
-106 -107 -117 -16 -5 -37 -14 -48 -18 -11 -4 -24 -8 -30 -9 -5 -1 -21 -5 -34
-9 -13 -5 -27 -4 -33 2 -13 13 71 99 106 108 14 3 26 10 26 14 0 11 70 39 98
39 12 1 22 -4 22 -10z"/>
<path d="M991 2454 c0 -11 3 -14 6 -6 3 7 2 16 -1 19 -3 4 -6 -2 -5 -13z"/>
<path d="M4225 4161 c-45 -11 -78 -36 -114 -86 -33 -47 -144 -273 -214 -438
-45 -108 -42 -108 -73 3 -18 63 -57 120 -95 140 -16 9 -16 5 5 -42 13 -29 28
-75 34 -103 16 -72 25 -237 13 -254 -6 -10 -11 11 -15 65 -9 120 -24 235 -36
277 -25 86 -142 167 -242 167 -49 0 -54 -3 -97 -48 -30 -31 -88 -124 -166
-265 -66 -119 -135 -238 -154 -264 l-35 -48 -17 95 c-32 185 -74 307 -121 357
-27 29 -41 29 -33 1 5 -22 5 -22 -7 -3 -31 48 -133 144 -178 169 -64 35 -136
44 -178 22 -72 -37 -153 -155 -176 -256 -25 -109 -36 -434 -36 -1105 0 -858
10 -978 90 -1068 34 -37 41 -41 97 -45 46 -3 71 1 105 16 77 34 77 34 105 622
4 96 6 280 5 408 -2 139 1 232 6 232 11 0 47 -73 58 -115 5 -18 2 -30 -7 -36
-11 -7 -15 -91 -20 -461 -4 -249 -12 -478 -17 -508 -18 -97 -40 -143 -77 -169
-32 -22 -42 -23 -110 -18 -83 7 -95 -3 -47 -38 40 -29 169 -29 209 1 41 31 70
78 77 126 3 24 10 201 16 393 5 193 12 393 15 445 2 52 5 109 5 125 l0 30 19
-31 c10 -17 32 -42 49 -55 16 -13 37 -36 46 -51 39 -60 195 -78 263 -30 29 21
37 33 83 133 l20 44 -4 -200 c-5 -215 -1 -242 47 -313 l25 -38 73 4 c86 5 140
28 166 72 9 16 20 30 24 30 8 0 129 281 129 299 0 6 6 22 14 34 23 36 184 439
191 479 4 20 13 39 21 42 20 8 66 104 69 145 4 56 17 101 28 101 15 0 2 -141
-16 -182 -9 -18 -22 -53 -30 -78 -9 -25 -22 -58 -31 -75 -9 -16 -16 -34 -16
-38 0 -5 -6 -23 -14 -40 -8 -18 -33 -78 -57 -135 -23 -57 -46 -105 -51 -108
-4 -3 -8 -15 -8 -28 0 -12 -4 -26 -9 -32 -5 -5 -19 -38 -31 -74 -12 -36 -27
-72 -34 -80 -8 -8 -16 -29 -19 -47 -10 -51 -94 -222 -132 -269 -42 -51 -88
-69 -156 -60 -27 4 -56 9 -64 12 -26 10 -16 -14 14 -35 64 -46 200 -35 252 20
36 39 188 376 196 436 4 33 15 56 33 73 17 16 42 71 74 158 26 72 49 132 49
132 1 0 1 -183 -1 -407 -2 -250 1 -443 7 -499 21 -181 73 -286 161 -332 37
-19 57 -23 115 -20 174 8 309 137 451 432 72 152 126 315 154 471 l20 110 -4
-75 c-2 -42 -13 -112 -24 -155 -12 -44 -26 -107 -33 -140 -17 -79 -47 -159
-105 -275 -56 -113 -87 -158 -177 -255 -79 -85 -127 -110 -244 -126 -145 -20
-124 -62 32 -63 75 -1 84 1 149 38 156 88 289 286 394 587 61 174 86 303 86
439 1 113 -19 220 -44 235 -6 3 -7 -1 -4 -9 3 -9 1 -16 -5 -16 -7 0 -11 -21
-11 -54 0 -74 -16 -79 -23 -8 -9 88 -28 132 -69 165 -72 58 -174 41 -211 -34
-10 -20 -33 -113 -52 -205 -35 -171 -69 -302 -81 -313 -9 -8 2 337 27 842 23
476 23 842 0 857 -10 5 -15 27 -15 64 -1 43 -6 60 -23 78 -12 12 -24 20 -27
17 -3 -2 2 -36 10 -74 8 -39 18 -110 22 -160 9 -118 4 -327 -9 -320 -5 4 -9
-28 -9 -77 0 -46 -9 -283 -20 -528 -11 -245 -24 -546 -28 -670 l-9 -225 -1
305 c-1 306 5 477 32 885 25 368 29 522 17 664 -15 184 -22 203 -94 257 -48
37 -102 68 -110 63 -1 -1 -16 -4 -32 -8z m-1241 -905 c7 -53 9 -99 4 -102 -4
-3 -10 1 -12 8 -6 19 -16 201 -10 196 2 -3 10 -48 18 -102z m366 -316 c0 -22
-4 -48 -9 -58 -20 -38 -92 -250 -98 -287 -10 -70 -57 -157 -108 -204 l-48 -44
-75 7 c-94 8 -121 26 -39 26 113 0 162 63 258 335 23 66 48 129 56 141 7 11
20 44 28 72 19 62 35 67 35 12z"/>
<path d="M3537 1375 c-3 -21 -3 -43 0 -49 10 -16 23 43 14 67 -7 17 -9 15 -14
-18z"/>
<path d="M449 1271 c-61 -39 -96 -78 -82 -92 16 -16 63 -3 117 31 38 25 46 35
46 60 0 39 -21 39 -81 1z m38 -19 c8 -5 0 -15 -22 -29 -39 -26 -58 -14 -29 18
18 20 32 23 51 11z"/>
<path d="M3850 1265 c-19 -7 -28 -14 -20 -14 8 0 29 6 45 14 39 17 21 18 -25
0z"/>
<path d="M3788 1243 c7 -3 16 -2 19 1 4 3 -2 6 -13 5 -11 0 -14 -3 -6 -6z"/>
<path d="M500 1171 c-19 -11 -44 -28 -54 -40 -19 -21 -19 -21 10 -21 30 1 104
45 112 68 5 18 -27 14 -68 -7z"/>
<path d="M3629 1179 c-9 -5 18 -9 75 -9 49 0 87 2 85 4 -10 9 -147 14 -160 5z"/>
<path d="M4462 1168 c-5 -7 -9 -23 -8 -35 1 -28 85 -83 126 -83 45 0 41 41 -9
91 -40 41 -88 52 -109 27z m74 -39 c19 -11 34 -25 34 -29 0 -16 -75 17 -78 33
-4 22 4 21 44 -4z"/>
<path d="M1684 1158 c-4 -7 -4 -10 1 -6 4 4 15 2 24 -5 14 -11 14 -10 2 6 -16
20 -18 21 -27 5z"/>
<path d="M518 1113 c-68 -44 -83 -63 -51 -63 18 0 105 53 124 76 29 35 -11 28
-73 -13z"/>
<path d="M1699 1127 c7 -9 17 -15 21 -12 5 3 11 1 15 -5 3 -5 12 -10 18 -10
11 1 -21 24 -33 25 -3 0 -12 4 -20 10 -13 8 -13 7 -1 -8z"/>
<path d="M584 1058 c-35 -31 -71 -94 -60 -105 10 -10 67 10 76 27 9 17 7 17
-20 7 -16 -6 -33 -7 -37 -3 -4 5 -2 11 5 14 8 2 29 17 47 33 28 25 37 28 59
19 29 -10 37 5 14 28 -20 20 -45 14 -84 -20z"/>
<path d="M4367 1043 c-18 -17 -5 -63 25 -93 56 -56 100 -64 118 -21 10 26 9
33 -12 61 -35 48 -107 77 -131 53z m101 -55 c27 -26 29 -58 5 -58 -24 1 -83
55 -83 76 0 22 46 11 78 -18z"/>
<path d="M3738 1023 c6 -2 18 -2 25 0 6 3 1 5 -13 5 -14 0 -19 -2 -12 -5z"/>
<path d="M717 891 c-68 -75 -73 -111 -15 -111 46 0 104 41 118 85 16 49 8 65
-34 65 -27 0 -41 -8 -69 -39z m83 2 c0 -26 -65 -93 -90 -93 -18 0 -19 3 -9 23
39 73 99 115 99 70z"/>
<path d="M4267 923 c-14 -13 -7 -29 13 -30 28 -2 77 -39 83 -63 3 -11 1 -20
-4 -20 -5 0 -9 -9 -9 -20 0 -23 22 -26 40 -5 37 45 -82 179 -123 138z"/>
<path d="M4240 853 c0 -25 46 -83 66 -83 25 0 15 25 -26 65 -35 34 -40 37 -40
18z"/>
<path d="M4141 796 c-7 -8 -11 -29 -9 -47 4 -40 28 -52 28 -15 0 36 17 33 25
-4 5 -23 12 -30 31 -30 30 0 32 -16 2 -23 -18 -5 -19 -9 -9 -21 10 -12 16 -13
32 -3 26 16 24 41 -6 73 -14 15 -25 32 -25 39 0 14 -32 45 -47 45 -6 0 -16 -6
-22 -14z"/>
<path d="M812 759 c-47 -44 -50 -73 -8 -81 19 -4 25 0 29 18 2 13 0 21 -5 17
-6 -3 -5 5 2 17 6 12 14 19 17 16 9 -8 43 24 43 41 0 7 -4 13 -10 13 -5 0 -7
-6 -4 -13 3 -8 -3 -20 -13 -28 -17 -13 -17 -13 -4 4 8 11 10 21 5 27 -5 5 -26
-8 -52 -31z"/>
<path d="M916 693 c-19 -21 -33 -39 -31 -41 2 -2 18 3 35 11 l30 16 -18 -27
c-25 -36 -33 -60 -22 -67 11 -7 36 19 55 55 15 29 11 90 -6 90 -4 0 -24 -17
-43 -37z"/>
<path d="M4058 657 l-3 -38 -22 21 -23 20 7 -32 c7 -41 21 -68 33 -68 6 0 10
7 10 15 0 8 5 15 10 15 6 0 10 -9 10 -20 0 -16 26 -40 44 -40 16 0 3 40 -14
45 -15 5 -20 15 -20 44 0 20 -6 46 -14 57 -14 18 -15 17 -18 -19z"/>
<path d="M1010 633 c-54 -67 -56 -123 -4 -123 24 0 44 26 44 57 -1 13 -5 11
-16 -9 -8 -16 -21 -28 -29 -28 -19 0 -19 4 1 41 10 19 21 29 30 25 8 -3 14 1
14 10 0 12 6 15 25 10 20 -5 25 -3 25 13 0 19 -26 41 -49 41 -5 0 -24 -17 -41
-37z"/>
<path d="M3968 599 c2 -22 7 -37 11 -34 4 2 15 -9 25 -26 20 -33 36 -38 36
-10 0 26 -27 72 -54 92 -21 16 -21 16 -18 -22z"/>
<path d="M1177 548 c-8 -27 -2 -34 16 -20 7 6 23 8 36 5 19 -5 22 -2 19 13 -2
13 -13 20 -34 22 -25 2 -33 -1 -37 -20z"/>
<path d="M3766 524 c-9 -8 -16 -22 -16 -29 0 -22 22 -65 33 -65 6 0 7 -3 4 -6
-13 -13 34 -64 58 -64 22 0 45 24 45 48 0 15 -32 24 -40 12 -9 -15 -60 34 -60
58 0 11 9 22 20 25 11 3 20 12 20 21 0 21 -43 21 -64 0z"/>
<path d="M1167 477 c-15 -17 -26 -25 -25 -17 2 8 0 16 -5 18 -21 7 -28 -1 -25
-30 2 -25 8 -34 25 -36 29 -4 73 39 73 73 0 33 -9 32 -43 -8z"/>
<path d="M3650 443 c0 -10 13 -46 29 -80 25 -52 33 -61 50 -56 12 3 21 7 21 9
0 2 -11 24 -25 49 l-26 46 28 -6 28 -7 -33 31 c-36 34 -72 41 -72 14z"/>
<path d="M1357 396 c-15 -30 -27 -66 -27 -80 0 -30 30 -42 60 -24 43 26 68
139 34 152 -31 12 -41 5 -67 -48z m60 10 c-3 -8 -11 -33 -17 -55 -8 -29 -16
-41 -29 -41 -16 0 -18 5 -12 33 11 47 29 77 47 77 10 0 14 -6 11 -14z"/>
<path d="M3580 390 c0 -24 24 -65 56 -97 52 -52 56 -5 6 62 -42 55 -62 67 -62
35z"/>
<path d="M1471 333 c-12 -38 -25 -74 -28 -82 -4 -10 -1 -12 10 -8 10 4 14 2
11 -7 -3 -7 2 -13 11 -13 11 0 15 6 12 19 -3 10 -1 18 4 18 4 0 6 6 3 14 -3 9
3 17 15 21 15 5 21 15 21 37 0 22 6 31 20 35 29 8 6 33 -29 33 -24 0 -29 -7
-50 -67z"/>
<path d="M3465 369 c-19 -29 27 -138 66 -159 24 -14 59 7 59 35 -1 32 -36 101
-61 119 -27 18 -55 21 -64 5z m72 -70 c27 -55 28 -68 4 -62 -19 5 -51 67 -51
99 0 28 24 9 47 -37z"/>
<path d="M1665 283 c-4 -21 -9 -45 -12 -53 -18 -47 -2 -69 32 -44 10 8 15 14
11 14 -5 0 -3 7 4 15 8 10 9 15 1 15 -7 0 -9 15 -4 45 5 37 3 45 -10 45 -11 0
-18 -12 -22 -37z"/>
<path d="M3312 308 c-7 -7 -12 -22 -12 -33 0 -25 29 -116 41 -129 13 -14 11
36 -2 90 -13 51 -7 64 18 42 34 -29 39 -28 35 8 -4 31 -7 34 -36 34 -18 0 -37
-5 -44 -12z"/>
<path d="M1753 298 c-17 -21 -24 -65 -14 -90 l9 -23 10 25 c9 24 9 24 20 4 7
-12 7 -26 1 -35 -5 -7 -9 -23 -9 -34 l1 -20 15 20 c11 14 18 16 21 8 12 -33
26 -4 48 100 9 45 -10 30 -23 -18 -13 -49 -32 -61 -32 -20 0 14 -4 25 -9 25
-5 0 -8 14 -7 31 1 34 -15 48 -31 27z"/>
<path d="M3161 271 c-16 -11 -7 -89 15 -133 19 -37 60 -47 86 -20 19 19 20 22
4 75 -9 31 -23 63 -32 71 -17 18 -51 21 -73 7z m75 -77 c20 -52 14 -80 -14
-65 -20 11 -42 72 -42 116 0 27 1 28 20 10 10 -9 27 -37 36 -61z"/>
<path d="M1888 202 c-10 -28 -18 -61 -18 -76 0 -38 27 -33 35 7 4 17 11 37 15
42 5 6 10 21 12 34 1 14 9 26 16 29 18 6 16 -63 -3 -78 -8 -7 -15 -21 -15 -31
0 -11 -5 -19 -11 -19 -8 0 -8 -5 1 -15 7 -8 18 -15 25 -15 18 0 47 83 43 127
-3 37 -5 38 -43 41 -40 3 -40 2 -57 -46z"/>
<path d="M3370 216 c0 -44 10 -56 47 -56 28 0 34 3 29 16 -3 9 -6 19 -6 23 0
7 -53 41 -64 41 -3 0 -6 -11 -6 -24z"/>
<path d="M2940 152 c0 -82 14 -108 53 -98 26 6 27 9 27 70 0 71 -14 96 -56 96
-23 0 -24 -3 -24 -68z m63 20 c8 -40 -3 -114 -17 -109 -6 2 -12 33 -14 70 -2
53 0 67 11 67 8 0 17 -13 20 -28z"/>
<path d="M2037 197 c-3 -8 -8 -44 -12 -80 -6 -58 -5 -67 9 -67 13 0 16 12 16
64 0 35 3 71 6 80 3 9 2 16 -4 16 -5 0 -12 -6 -15 -13z"/>
<path d="M2136 188 c-3 -13 -9 -54 -13 -92 l-6 -69 29 7 c16 4 30 8 31 9 1 1
3 38 4 82 2 74 1 80 -18 83 -14 2 -22 -4 -27 -20z"/>
<path d="M2816 202 c-17 -4 -18 -11 -12 -80 4 -42 9 -79 12 -84 8 -13 34 -9
40 7 5 11 11 12 25 4 27 -14 32 6 19 66 -18 79 -35 97 -84 87z m48 -66 c8 -32
7 -40 -12 -59 l-22 -21 0 63 c0 71 18 81 34 17z"/>
<path d="M2230 150 c0 -23 5 -51 11 -62 9 -16 8 -19 -2 -13 -9 6 -11 3 -6 -9
4 -10 7 -24 7 -32 0 -12 4 -12 20 -2 13 8 16 16 10 22 -6 6 -10 32 -10 58 0
37 4 48 16 48 26 0 9 25 -19 28 -25 3 -27 1 -27 -38z"/>
<path d="M2673 163 c-13 -39 -4 -120 14 -135 14 -11 15 -4 8 60 -7 69 -6 72
14 72 19 0 21 -6 21 -70 0 -57 3 -70 16 -70 14 0 15 9 9 63 -4 34 -13 72 -21
85 -20 31 -50 28 -61 -5z"/>
<path d="M2492 148 c-8 -18 -11 -19 -11 -5 -1 28 -31 21 -31 -8 0 -16 6 -25
16 -25 12 0 15 -6 11 -21 -8 -31 3 -79 18 -79 7 0 15 20 19 46 13 100 3 143
-22 92z"/>
<path d="M2536 129 c-12 -60 -7 -119 9 -119 12 0 15 15 15 75 0 77 -13 100
-24 44z"/>
</g>
</svg>
